<mxfile host="app.diagrams.net" modified="2020-10-17T05:32:14.589Z" agent="5.0 (Windows NT 10.0; Win64; x64) AppleWebKit/537.36 (KHTML, like Gecko) Chrome/81.0.4044.138 Safari/537.36" etag="Y_3MEskwo1X9LemqXnih" version="13.7.9" type="github">
  <diagram id="jzcbTq0jPRGd7s8sM-Ae" name="Page-1">
    <mxGraphModel dx="1422" dy="762" grid="1" gridSize="10" guides="1" tooltips="1" connect="1" arrows="1" fold="1" page="1" pageScale="1" pageWidth="827" pageHeight="1169" math="0" shadow="0">
      <root>
        <mxCell id="0" />
        <mxCell id="1" parent="0" />
        <mxCell id="sziwZIUHEcl3UfsQVGRr-1" value="&lt;font style=&quot;font-size: 16px&quot;&gt;Cache Line 1&lt;/font&gt;" style="rounded=1;whiteSpace=wrap;html=1;strokeWidth=1;fillWeight=4;hachureGap=8;hachureAngle=45;sketch=0;comic=1;fontFamily=Comic Sans MS;fillColor=#dae8fc;strokeColor=#6c8ebf;fontSize=16;" vertex="1" parent="1">
          <mxGeometry x="80" y="400" width="120" height="40" as="geometry" />
        </mxCell>
        <mxCell id="sziwZIUHEcl3UfsQVGRr-2" value="&lt;font style=&quot;font-size: 16px&quot;&gt;Cache Line 2&lt;/font&gt;" style="rounded=1;whiteSpace=wrap;html=1;strokeWidth=1;fillWeight=4;hachureGap=8;hachureAngle=45;sketch=0;comic=1;fontFamily=Comic Sans MS;fillColor=#dae8fc;strokeColor=#6c8ebf;fontSize=16;" vertex="1" parent="1">
          <mxGeometry x="80" y="440" width="120" height="40" as="geometry" />
        </mxCell>
        <mxCell id="sziwZIUHEcl3UfsQVGRr-3" value="....." style="rounded=1;whiteSpace=wrap;html=1;strokeWidth=1;fillWeight=4;hachureGap=8;hachureAngle=45;sketch=0;comic=1;fontFamily=Comic Sans MS;fillColor=#dae8fc;strokeColor=#6c8ebf;fontSize=16;" vertex="1" parent="1">
          <mxGeometry x="80" y="480" width="120" height="40" as="geometry" />
        </mxCell>
        <mxCell id="sziwZIUHEcl3UfsQVGRr-5" value="&lt;font style=&quot;font-size: 16px&quot;&gt;Cache Line 7&lt;/font&gt;" style="rounded=1;whiteSpace=wrap;html=1;strokeWidth=1;fillWeight=4;hachureGap=8;hachureAngle=45;sketch=0;comic=1;fontFamily=Comic Sans MS;fillColor=#dae8fc;strokeColor=#6c8ebf;fontSize=16;" vertex="1" parent="1">
          <mxGeometry x="80" y="520" width="120" height="40" as="geometry" />
        </mxCell>
        <mxCell id="sziwZIUHEcl3UfsQVGRr-6" value="CPU Cache" style="text;html=1;align=center;verticalAlign=middle;resizable=0;points=[];autosize=1;fontSize=16;fontFamily=Comic Sans MS;fontStyle=1" vertex="1" parent="1">
          <mxGeometry x="90" y="370" width="100" height="20" as="geometry" />
        </mxCell>
        <mxCell id="sziwZIUHEcl3UfsQVGRr-7" value="&lt;font style=&quot;font-size: 16px&quot;&gt;Block 1&lt;/font&gt;" style="rounded=1;whiteSpace=wrap;html=1;strokeWidth=1;fillWeight=4;hachureGap=8;hachureAngle=45;sketch=0;comic=1;fontFamily=Comic Sans MS;fillColor=#fff2cc;strokeColor=#d6b656;fontSize=16;" vertex="1" parent="1">
          <mxGeometry x="414" y="290" width="120" height="40" as="geometry" />
        </mxCell>
        <mxCell id="sziwZIUHEcl3UfsQVGRr-8" value="Block 2" style="rounded=1;whiteSpace=wrap;html=1;strokeWidth=1;fillWeight=4;hachureGap=8;hachureAngle=45;sketch=0;comic=1;fontFamily=Comic Sans MS;fillColor=#fff2cc;strokeColor=#d6b656;fontSize=16;" vertex="1" parent="1">
          <mxGeometry x="414" y="330" width="120" height="40" as="geometry" />
        </mxCell>
        <mxCell id="sziwZIUHEcl3UfsQVGRr-9" value="....." style="rounded=1;whiteSpace=wrap;html=1;strokeWidth=1;fillWeight=4;hachureGap=8;hachureAngle=45;sketch=0;comic=1;fontFamily=Comic Sans MS;fillColor=#fff2cc;strokeColor=#d6b656;fontSize=16;" vertex="1" parent="1">
          <mxGeometry x="414" y="370" width="120" height="40" as="geometry" />
        </mxCell>
        <mxCell id="sziwZIUHEcl3UfsQVGRr-21" style="edgeStyle=orthogonalEdgeStyle;rounded=0;orthogonalLoop=1;jettySize=auto;html=1;entryX=1;entryY=0.25;entryDx=0;entryDy=0;fontFamily=Comic Sans MS;fontSize=16;" edge="1" parent="1" source="sziwZIUHEcl3UfsQVGRr-10" target="sziwZIUHEcl3UfsQVGRr-5">
          <mxGeometry relative="1" as="geometry">
            <Array as="points">
              <mxPoint x="240" y="430" />
              <mxPoint x="240" y="530" />
            </Array>
          </mxGeometry>
        </mxCell>
        <mxCell id="sziwZIUHEcl3UfsQVGRr-10" value="Block 7" style="rounded=1;whiteSpace=wrap;html=1;strokeWidth=1;fillWeight=4;hachureGap=8;hachureAngle=45;sketch=0;comic=1;fontFamily=Comic Sans MS;fillColor=#fff2cc;strokeColor=#d6b656;fontSize=16;" vertex="1" parent="1">
          <mxGeometry x="414" y="410" width="120" height="40" as="geometry" />
        </mxCell>
        <mxCell id="sziwZIUHEcl3UfsQVGRr-11" value="....." style="rounded=1;whiteSpace=wrap;html=1;strokeWidth=1;fillWeight=4;hachureGap=8;hachureAngle=45;sketch=0;comic=1;fontFamily=Comic Sans MS;fillColor=#fff2cc;strokeColor=#d6b656;fontSize=16;" vertex="1" parent="1">
          <mxGeometry x="414" y="450" width="120" height="40" as="geometry" />
        </mxCell>
        <mxCell id="sziwZIUHEcl3UfsQVGRr-25" style="edgeStyle=orthogonalEdgeStyle;rounded=0;orthogonalLoop=1;jettySize=auto;html=1;entryX=1;entryY=0.5;entryDx=0;entryDy=0;fontFamily=Comic Sans MS;fontSize=16;" edge="1" parent="1" source="sziwZIUHEcl3UfsQVGRr-12" target="sziwZIUHEcl3UfsQVGRr-5">
          <mxGeometry relative="1" as="geometry" />
        </mxCell>
        <mxCell id="sziwZIUHEcl3UfsQVGRr-12" value="Block 15" style="rounded=1;whiteSpace=wrap;html=1;strokeWidth=1;fillWeight=4;hachureGap=8;hachureAngle=45;sketch=0;comic=1;fontFamily=Comic Sans MS;fillColor=#fff2cc;strokeColor=#d6b656;fontSize=16;" vertex="1" parent="1">
          <mxGeometry x="414" y="490" width="120" height="40" as="geometry" />
        </mxCell>
        <mxCell id="sziwZIUHEcl3UfsQVGRr-13" value="....." style="rounded=1;whiteSpace=wrap;html=1;strokeWidth=1;fillWeight=4;hachureGap=8;hachureAngle=45;sketch=0;comic=1;fontFamily=Comic Sans MS;fillColor=#fff2cc;strokeColor=#d6b656;fontSize=16;" vertex="1" parent="1">
          <mxGeometry x="414" y="530" width="120" height="40" as="geometry" />
        </mxCell>
        <mxCell id="sziwZIUHEcl3UfsQVGRr-26" style="edgeStyle=orthogonalEdgeStyle;rounded=0;orthogonalLoop=1;jettySize=auto;html=1;entryX=1;entryY=0.75;entryDx=0;entryDy=0;fontFamily=Comic Sans MS;fontSize=16;" edge="1" parent="1" source="sziwZIUHEcl3UfsQVGRr-14" target="sziwZIUHEcl3UfsQVGRr-5">
          <mxGeometry relative="1" as="geometry" />
        </mxCell>
        <mxCell id="sziwZIUHEcl3UfsQVGRr-14" value="Block 23" style="rounded=1;whiteSpace=wrap;html=1;strokeWidth=1;fillWeight=4;hachureGap=8;hachureAngle=45;sketch=0;comic=1;fontFamily=Comic Sans MS;fillColor=#fff2cc;strokeColor=#d6b656;fontSize=16;" vertex="1" parent="1">
          <mxGeometry x="414" y="570" width="120" height="40" as="geometry" />
        </mxCell>
        <mxCell id="sziwZIUHEcl3UfsQVGRr-17" value="....." style="rounded=1;whiteSpace=wrap;html=1;strokeWidth=1;fillWeight=4;hachureGap=8;hachureAngle=45;sketch=0;comic=1;fontFamily=Comic Sans MS;fillColor=#fff2cc;strokeColor=#d6b656;fontSize=16;" vertex="1" parent="1">
          <mxGeometry x="414" y="610" width="120" height="40" as="geometry" />
        </mxCell>
        <mxCell id="sziwZIUHEcl3UfsQVGRr-27" style="edgeStyle=orthogonalEdgeStyle;rounded=0;orthogonalLoop=1;jettySize=auto;html=1;entryX=1;entryY=1;entryDx=0;entryDy=0;fontFamily=Comic Sans MS;fontSize=16;exitX=0;exitY=0.5;exitDx=0;exitDy=0;" edge="1" parent="1" source="sziwZIUHEcl3UfsQVGRr-18" target="sziwZIUHEcl3UfsQVGRr-5">
          <mxGeometry relative="1" as="geometry">
            <Array as="points">
              <mxPoint x="240" y="670" />
              <mxPoint x="240" y="560" />
            </Array>
          </mxGeometry>
        </mxCell>
        <mxCell id="sziwZIUHEcl3UfsQVGRr-18" value="Block 31" style="rounded=1;whiteSpace=wrap;html=1;strokeWidth=1;fillWeight=4;hachureGap=8;hachureAngle=45;sketch=0;comic=1;fontFamily=Comic Sans MS;fillColor=#fff2cc;strokeColor=#d6b656;fontSize=16;" vertex="1" parent="1">
          <mxGeometry x="414" y="650" width="120" height="40" as="geometry" />
        </mxCell>
        <mxCell id="sziwZIUHEcl3UfsQVGRr-20" value="内存" style="text;html=1;align=center;verticalAlign=middle;resizable=0;points=[];autosize=1;fontSize=16;fontFamily=Comic Sans MS;fontStyle=1" vertex="1" parent="1">
          <mxGeometry x="449" y="260" width="50" height="20" as="geometry" />
        </mxCell>
        <mxCell id="sziwZIUHEcl3UfsQVGRr-28" value="Block 32" style="rounded=1;whiteSpace=wrap;html=1;strokeWidth=1;fillWeight=4;hachureGap=8;hachureAngle=45;sketch=0;comic=1;fontFamily=Comic Sans MS;fillColor=#fff2cc;strokeColor=#d6b656;fontSize=16;" vertex="1" parent="1">
          <mxGeometry x="414" y="690" width="120" height="40" as="geometry" />
        </mxCell>
        <mxCell id="sziwZIUHEcl3UfsQVGRr-29" value="Cache Line 8" style="rounded=1;whiteSpace=wrap;html=1;strokeWidth=1;fillWeight=4;hachureGap=8;hachureAngle=45;sketch=0;comic=1;fontFamily=Comic Sans MS;fillColor=#dae8fc;strokeColor=#6c8ebf;fontSize=16;" vertex="1" parent="1">
          <mxGeometry x="80" y="560" width="120" height="40" as="geometry" />
        </mxCell>
      </root>
    </mxGraphModel>
  </diagram>
</mxfile>
